<svg xmlns="http://www.w3.org/2000/svg" version="1.1" xmlns:xlink="http://www.w3.org/1999/xlink" xmlns:svgjs="http://svgjs.dev/svgjs" width="1000" height="1000" viewBox="0 0 1000 1000"><rect width="1000" height="1000" fill="#0080ff"></rect><g transform="matrix(0.7,0,0,0.7,149.5757591856443,409.9208464698503)"><svg viewBox="0 0 396 102" data-background-color="#0080ff" preserveAspectRatio="xMidYMid meet" height="257" width="1000" xmlns="http://www.w3.org/2000/svg" xmlns:xlink="http://www.w3.org/1999/xlink"><g id="tight-bounds" transform="matrix(1,0,0,1,0.23999908926407443,0.07322768246399392)"><svg viewBox="0 0 395.52 101.85354463507204" height="101.85354463507204" width="395.52"><g><svg viewBox="0 0 584.3890245450009 150.49073016722406" height="101.85354463507204" width="395.52"><g><rect width="6.274775697161419" height="150.49073016722406" x="166.16813445736454" y="0" fill="#ffffff" opacity="1" stroke-width="0" stroke="transparent" fill-opacity="1" class="rect-o-0" data-fill-palette-color="primary" rx="1%" id="o-0" data-palette-color="#ffffff"></rect></g><g transform="matrix(1,0,0,1,188.86902454500088,0.3743550501672104)"><svg viewBox="0 0 395.52 149.74202006688964" height="149.74202006688964" width="395.52"><g id="textblocktransform"><svg viewBox="0 0 395.52 149.74202006688964" height="149.74202006688964" width="395.52" id="textblock"><g><svg viewBox="0 0 395.52 149.74202006688964" height="149.74202006688964" width="395.52"><g transform="matrix(1,0,0,1,0,0)"><svg width="395.52" viewBox="5.349998474121094 -37.90000534057617 224.25 81.20000457763672" height="149.74202006688964" data-palette-color="#ffffff"><svg></svg><svg></svg><g class="wordmark-text-0" data-fill-palette-color="primary" id="text-0"><path xmlns="http://www.w3.org/2000/svg" d="M18.6-37.9c8.267 0 12.4 3.767 12.4 11.3v0c0 3.667-1.033 6.457-3.1 8.37-2.067 1.92-5.167 2.88-9.3 2.88v0h-8.4v15.35h-4.85v-37.9zM26.05-26.6c0-2.467-0.617-4.26-1.85-5.38-1.233-1.113-3.1-1.67-5.6-1.67v0h-8.4v14h8.4c4.933 0 7.417-2.317 7.45-6.95zM60.3 0l-9.75-16.05h-7.35v16.05h-4.85v-37.9h13.25c8.267 0 12.4 3.667 12.4 11v0c0 2.9-0.693 5.24-2.08 7.02-1.38 1.787-3.453 2.947-6.22 3.48v0l10.15 16.4zM43.2-33.65v13.35h8.4c4.933 0 7.417-2.2 7.45-6.6v0c0-2.333-0.617-4.04-1.85-5.12-1.233-1.087-3.1-1.63-5.6-1.63v0zM73.65 0v-37.9h4.85v37.9zM113.15-37.9h4.85v37.9h-5.3l-18.65-29.75v29.75h-4.85v-37.9h5.25l18.7 29.75zM153.05-37.9v4.35h-11.4v33.55h-4.9v-33.55h-11.4v-4.35z" fill="#ffffff" fill-rule="nonzero" stroke="none" stroke-width="1" stroke-linecap="butt" stroke-linejoin="miter" stroke-miterlimit="10" stroke-dasharray="" stroke-dashoffset="0" font-family="none" font-weight="none" font-size="none" text-anchor="none" style="mix-blend-mode: normal" data-fill-palette-color="primary" opacity="1"></path><path xmlns="http://www.w3.org/2000/svg" d="M10.2 38.25h18.35v4.2h-23.2v-37.9h22.95v4.2h-18.1v12.55h15.6v4.2h-15.6zM66.6 42.45h-5.7l-10.75-16-10.75 16h-5.7l13.5-19.5-12.6-18.4h5.65l9.95 14.75 9.9-14.75h5.65l-12.6 18.4zM87.2 4.55c8.267 0 12.4 3.767 12.4 11.3v0c0 3.667-1.033 6.457-3.1 8.37-2.067 1.92-5.167 2.88-9.3 2.88v0h-8.4v15.35h-4.85v-37.9zM94.65 15.85c0-2.467-0.617-4.26-1.85-5.38-1.233-1.113-3.1-1.67-5.6-1.67v0h-8.4v14h8.4c4.933 0 7.417-2.317 7.45-6.95zM128.9 42.45l-9.75-16.05h-7.35v16.05h-4.85v-37.9h13.25c8.267 0 12.4 3.667 12.4 11v0c0 2.9-0.69 5.24-2.07 7.02-1.387 1.787-3.463 2.947-6.23 3.48v0l10.15 16.4zM111.8 8.8v13.35h8.4c4.933 0 7.417-2.2 7.45-6.6v0c0-2.333-0.617-4.04-1.85-5.12-1.233-1.087-3.1-1.63-5.6-1.63v0zM147.1 38.25h18.35v4.2h-23.2v-37.9h22.95v4.2h-18.1v12.55h15.6v4.2h-15.6zM184.55 43.3c-4.833 0-9.15-0.9-12.95-2.7v0-4.6c3.833 2.033 8.15 3.05 12.95 3.05v0c2.767 0 4.793-0.583 6.08-1.75 1.28-1.167 1.92-2.7 1.92-4.6v0c0-1.8-0.59-3.15-1.77-4.05-1.187-0.9-2.93-1.683-5.23-2.35v0l-3.4-0.95c-1.933-0.567-3.583-1.217-4.95-1.95-1.367-0.733-2.507-1.793-3.42-3.18-0.92-1.38-1.38-3.187-1.38-5.42v0c0-3.567 1.043-6.283 3.13-8.15 2.08-1.867 5.037-2.8 8.87-2.8v0c2.233 0 4.2 0.207 5.9 0.62 1.7 0.42 3.467 1.047 5.3 1.88v0 4.5c-3.4-1.833-7.133-2.75-11.2-2.75v0c-2.467 0-4.267 0.573-5.4 1.72-1.133 1.153-1.7 2.73-1.7 4.73v0c0.033 1.833 0.593 3.183 1.68 4.05 1.08 0.867 2.77 1.633 5.07 2.3v0l3.45 0.95c2.033 0.567 3.76 1.223 5.18 1.97 1.413 0.753 2.563 1.837 3.45 3.25 0.88 1.42 1.32 3.263 1.32 5.53v0c-0.033 3.3-1.19 5.91-3.47 7.83-2.287 1.913-5.43 2.87-9.43 2.87zM216.7 43.3c-4.833 0-9.15-0.9-12.95-2.7v0-4.6c3.833 2.033 8.15 3.05 12.95 3.05v0c2.767 0 4.793-0.583 6.08-1.75 1.28-1.167 1.92-2.7 1.92-4.6v0c0-1.8-0.59-3.15-1.77-4.05-1.187-0.9-2.93-1.683-5.23-2.35v0l-3.4-0.95c-1.933-0.567-3.583-1.217-4.95-1.95-1.367-0.733-2.507-1.793-3.42-3.18-0.92-1.38-1.38-3.187-1.38-5.42v0c0-3.567 1.043-6.283 3.13-8.15 2.08-1.867 5.037-2.8 8.87-2.8v0c2.233 0 4.2 0.207 5.9 0.62 1.7 0.42 3.467 1.047 5.3 1.88v0 4.5c-3.4-1.833-7.133-2.75-11.2-2.75v0c-2.467 0-4.267 0.573-5.4 1.72-1.133 1.153-1.7 2.73-1.7 4.73v0c0.033 1.833 0.593 3.183 1.68 4.05 1.08 0.867 2.77 1.633 5.07 2.3v0l3.45 0.95c2.033 0.567 3.76 1.223 5.18 1.97 1.413 0.753 2.563 1.837 3.45 3.25 0.88 1.42 1.32 3.263 1.32 5.53v0c-0.033 3.3-1.19 5.91-3.47 7.83-2.287 1.913-5.43 2.87-9.43 2.87z" fill="#ffffff" fill-rule="nonzero" stroke="none" stroke-width="1" stroke-linecap="butt" stroke-linejoin="miter" stroke-miterlimit="10" stroke-dasharray="" stroke-dashoffset="0" font-family="none" font-weight="none" font-size="none" text-anchor="none" style="mix-blend-mode: normal" data-fill-palette-color="primary" opacity="1"></path></g></svg></g></svg></g></svg></g></svg></g><g transform="matrix(1,0,0,1,0,0.3743550501672104)"><svg viewBox="0 0 149.74202006688964 149.74202006688964" height="149.74202006688964" width="149.74202006688964"><g><svg xmlns="http://www.w3.org/2000/svg" xmlns:xlink="http://www.w3.org/1999/xlink" version="1.1" x="0" y="0" viewBox="5 5 90 90" enable-background="new 0 0 100 100" xml:space="preserve" height="149.74202006688964" width="149.74202006688964" class="icon-icon-0" data-fill-palette-color="accent" id="icon-0"><path d="M72.8 45.5c-1.3 0-2.3 1-2.3 2.3 0 1.3 1 2.3 2.3 2.3 1.3 0 2.3-1 2.3-2.3C75 46.5 74 45.5 72.8 45.5L72.8 45.5zM50 5C25.1 5 5 25.1 5 50c0 24.9 20.1 45 45 45 24.9 0 45-20.1 45-45C95 25.1 74.9 5 50 5L50 5zM65.3 31.2h-9.6v-9.6L65.3 31.2zM51.2 19.4v14c0 1.3 1 2.3 2.3 2.3h14.1v3H31.9V19.4H51.2zM68.1 76.8H32.4V56h35.7V76.8zM77.2 67.1c0 1.3-1 2.3-2.2 2.3h-2.5V56c0-2.5-2-4.5-4.5-4.5H32.4c-2.5 0-4.5 2-4.5 4.5v13.3h-2.4c-1.3 0-2.3-1-2.3-2.3V44.8c0-1.3 1-2.2 2.3-2.2H75c1.3 0 2.2 1 2.2 2.2V67.1zM38.5 61.3V65H62v-3.7H38.5zM38.5 67.1v3.6H62v-3.6H38.5z" fill="#ffffff" data-fill-palette-color="accent"></path></svg></g></svg></g></svg></g><defs></defs></svg><rect width="395.52" height="101.85354463507204" fill="none" stroke="none" visibility="hidden"></rect></g></svg></g></svg>